<svg width="301" height="301" viewBox="0 0 301 301" fill="none" xmlns="http://www.w3.org/2000/svg">
<rect x="0.48291" y="0.669678" width="300" height="300" fill="#1A1A1A"/>
<path opacity="0.98" d="M150.483 48.855C90.2961 48.855 41.5103 94.4363 41.5103 150.67C41.5103 206.903 90.2961 252.484 150.483 252.484C210.67 252.484 259.456 206.903 259.456 150.67C259.456 94.4363 210.67 48.855 150.483 48.855ZM65.6381 150.67C65.6381 107.07 103.553 71.3979 150.483 71.3979C155.521 71.3979 160.558 71.8932 165.331 72.6365C143.855 113.759 117.34 158.597 117.34 158.597H165.861L165.596 228.703C160.558 229.446 155.52 229.942 150.483 229.942C103.818 229.942 65.6381 194.269 65.6381 150.67Z" fill="#FBFBFB"/>
</svg>
